<?xml version="1.0" encoding="UTF-8"?>
<svg id="_레이어_1" xmlns="http://www.w3.org/2000/svg" version="1.1" viewBox="0 0 100 97.5">
  <!-- Generator: Adobe Illustrator 30.5.1, SVG Export Plug-In . SVG Version: 2.1.4 Build 3)  -->
  <defs>
    <style>
      .st0 {
        fill: #111;
      }

      .st1 {
        fill: #00b176;
      }
    </style>
  </defs>
  <path class="st1" d="M0,81.7V15.81C1.19,6.89,8.42,0,17.6,0h64.79c9.25,0,16.69,7.07,17.61,16.23v65.04c-.92,9.17-8.38,16.23-17.62,16.23H17.61c-9.18,0-16.42-6.89-17.61-15.81h0ZM76.1,26.85c0-2.91-2.36-5.27-5.27-5.27s-5.27,2.36-5.27,5.27,2.36,5.27,5.27,5.27,5.27-2.36,5.27-5.27ZM48.46,58.51l3.57,10.36c3.3.03,6.44.08,9.83-.08l-15.52-43.82h-11.52c-.07,1.62-.17,2.94-.68,4.45l-13.43,38.67c-.05.15-.09.59.03.63l.53.19,8.32-.05,3.35-10.35h15.52ZM75.42,35.59h-9.34v33.34h9.34v-33.34Z"/>
  <path class="st0" d="M48.46,58.51h-15.51l-3.35,10.35-8.32.05-.53-.19c-.12-.04-.08-.48-.03-.63l13.43-38.67c.51-1.51.62-2.83.68-4.46h11.52l15.52,43.83c-3.39.16-6.53.11-9.83.08l-3.57-10.36h0ZM45.95,50.02l-5.38-17.43-5.22,17.46,10.59-.03h.01Z"/>
  <rect class="st0" x="66.08" y="35.59" width="9.34" height="33.34"/>
  <circle class="st0" cx="70.83" cy="26.85" r="5.27"/>
  <polygon class="st1" points="45.95 50.02 35.36 50.05 40.57 32.6 45.95 50.02"/>
</svg>