<?xml version="1.0" encoding="UTF-8"?>
<svg id="_레이어_1" xmlns="http://www.w3.org/2000/svg" version="1.1" viewBox="0 0 100 97.52">
  <!-- Generator: Adobe Illustrator 30.5.1, SVG Export Plug-In . SVG Version: 2.1.4 Build 3)  -->
  <defs>
    <style>
      .st0 {
        fill: #111;
      }

      .st1 {
        fill: #00b176;
      }
    </style>
  </defs>
  <path class="st1" d="M100,16v65.54c-1.1,9.07-8.46,15.97-17.65,15.97H17.66c-9.25,0-16.74-7.04-17.66-16.23V16.24C.92,7.04,8.41,0,17.66,0h64.69c9.26,0,16.59,6.98,17.65,16Z"/>
  <path class="st0" d="M79.64,62.34c-8.54-4.71-17.3-8.98-25.86-13.63,8.64-4.46,17.26-8.99,25.84-13.61v-9.21c-3.66,1.97-7.41,3.81-11.03,5.87.13-3.26-2.35-6.04-5.6-6.28H25.52c-2.74.3-4.89,2.48-5.16,5.23v10.05c5.25,2.55,10.33,5.43,15.58,7.96-5.19,2.75-10.39,5.53-15.58,8.13v10.01c.13,3.01,2.79,5.05,5.64,5.19h37.07c3.26-.25,5.73-3.05,5.58-6.32,3.62,2.06,7.34,3.92,11,5.9,0-3.09-.05-6.19,0-9.28ZM25.52,34.13l.03-.02c12.74.03,25.49,0,38.22.03-6.28,3.4-12.66,6.6-18.95,9.99-6.44-3.32-12.85-6.69-19.3-10ZM25.58,63.37l.03-.02c6.44-3.35,12.85-6.66,19.2-10.03,6.33,3.48,12.8,6.64,19.15,10.1-12.79-.05-25.6.03-38.38-.05Z"/>
</svg>