<?xml version="1.0" encoding="UTF-8"?>
<svg id="_레이어_1" xmlns="http://www.w3.org/2000/svg" version="1.1" viewBox="0 0 100 97.51">
  <!-- Generator: Adobe Illustrator 30.5.1, SVG Export Plug-In . SVG Version: 2.1.4 Build 3)  -->
  <defs>
    <style>
      .st0 {
        fill: #111;
      }

      .st1 {
        fill: #00b176;
      }

      .st2 {
        fill: #cdcdcd;
      }

      .st3 {
        fill: #1c1c1c;
      }
    </style>
  </defs>
  <path class="st1" d="M100,16v65.54c-1.1,9.07-8.46,15.97-17.65,15.97H17.66c-9.25,0-16.74-7.04-17.66-16.23V16.24C.92,7.04,8.41,0,17.66,0h64.69c9.26,0,16.59,6.98,17.65,16Z"/>
  <g>
    <g>
      <g>
        <path class="st0" d="M39.09,38.92c.1-.11.37-.08.54-.05h10.37c.07,0,.18,0,.18.06.06,2.21.08,4.66,0,6.87-.07.39-.11.77-.09,1.15.07,0,.17.04.16.09-.05,1.02-.1,2.05-.07,3.09.07.19.04.31-.1.38,0,.03-.07.06-.07.13v8.01l-.06.18h-10.21l-.11-.17c-.18.02-.32,0-.44-.05-5.06-.47-8.93-4.74-8.96-9.8-.03-5.06,3.81-9.42,8.87-9.88h-.01Z"/>
        <path class="st3" d="M60.5,38.89c5.18.37,9.13,4.65,9.2,9.73s-3.84,9.47-8.93,9.97-9.78-3.01-10.7-8.1l-.07-.32v-2.85l.09-.39c.02-2.03,1.35-4.11,2.8-5.49,1.53-1.45,3.64-2.58,5.78-2.53l1.84-.04v.02Z"/>
        <polygon class="st2" points="39.62 58.64 39.18 58.69 39.18 58.59 39.62 58.64"/>
      </g>
      <path class="st3" d="M50,58.64v9.81c0,5.43-4.29,9.82-9.63,9.96s-9.82-3.99-10.13-9.33,3.65-9.92,8.95-10.39c.1-.06.25-.07.44-.05h10.38,0Z"/>
    </g>
    <g>
      <path class="st3" d="M60.5,38.89c0,.07-.02.16-.08.18-.1.03-1.48.05-1.63.03l-.13-.18c-2.84.13-5.69.17-8.55.12l-.11-.18-.18-.06v-19.59l.18-.11h10.11c5.27.02,9.45,4.34,9.66,9.48s-3.69,9.74-8.94,10.24c-.14,0-.29-.07-.33.07Z"/>
      <path d="M50,19.1v19.77l-.06.18h-10.21l-.11-.17c-.2,0-.38-.02-.53-.06-5.2-.53-9.08-5.06-8.86-10.24s4.5-9.47,9.84-9.47h9.93Z"/>
    </g>
  </g>
</svg>