<?xml version="1.0" encoding="UTF-8"?>
<svg id="_레이어_1" xmlns="http://www.w3.org/2000/svg" version="1.1" viewBox="0 0 100 97.51">
  <!-- Generator: Adobe Illustrator 30.5.1, SVG Export Plug-In . SVG Version: 2.1.4 Build 3)  -->
  <defs>
    <style>
      .st0 {
        fill: #111;
      }

      .st1 {
        fill: #00b176;
      }
    </style>
  </defs>
  <path class="st1" d="M100,16v65.54c-1.1,9.07-8.46,15.97-17.65,15.97H17.66c-9.25,0-16.74-7.04-17.66-16.23V16.24C.92,7.04,8.41,0,17.66,0h64.69c9.26,0,16.59,6.98,17.65,16ZM53.18,47.62c2.6-4.59,2.81-10.22.39-14.93-1.63-3.18-4.48-5.23-7.74-6.56-2.63-.9-5.28-1.38-8.11-1.32l-13.98.26v43.84h9.03s.03-13.98.03-13.98c7.95.49,16.34-.2,20.37-7.31h.01ZM61,68.93l9.39-.06v-21.79c2.53-2.54,7.05-3.11,10.79-3.1v-9.12c-4.56-.29-8.49,1.96-11.34,5.11l-.45-3.51c-.07-.54-.66-.97-1.19-.97l-7.47.02.26,11.51.03,21.91h-.02Z"/>
  <path class="st0" d="M53.18,47.62c-4.03,7.11-12.42,7.8-20.37,7.31l-.03,13.97h-9.03V25.07l13.98-.26c2.83-.05,5.48.42,8.11,1.32,3.26,1.33,6.11,3.37,7.74,6.56,2.42,4.71,2.2,10.34-.39,14.93h-.01ZM42.07,46.19c2.71-1.07,4.17-3.61,4.09-6.42-.14-4.76-3.84-6.82-8.46-6.77l-4.88.06v14.05l3.31.07c2.01.04,4-.22,5.93-.99h0Z"/>
  <path class="st0" d="M61,68.93l-.03-21.91-.26-11.51,7.47-.02c.53,0,1.12.42,1.19.97l.45,3.51c2.85-3.15,6.79-5.4,11.34-5.11v9.12c-3.73,0-8.25.56-10.78,3.1v21.79l-9.39.06h0Z"/>
  <path class="st1" d="M42.07,46.19c-1.94.77-3.93,1.03-5.93.99l-3.31-.07v-14.05l4.88-.06c4.61-.05,8.32,2,8.46,6.77.08,2.81-1.37,5.35-4.09,6.42h0Z"/>
</svg>