<?xml version="1.0" encoding="UTF-8"?>
<svg id="_레이어_1" xmlns="http://www.w3.org/2000/svg" version="1.1" viewBox="0 0 98.7 96.23">
  <!-- Generator: Adobe Illustrator 30.5.1, SVG Export Plug-In . SVG Version: 2.1.4 Build 3)  -->
  <defs>
    <style>
      .st0 {
        fill: #111;
      }

      .st1 {
        fill: #00b176;
      }
    </style>
  </defs>
  <g id="Layer_2">
    <g id="Surfaces">
      <g id="Photo_Surface">
        <g id="Outline_no_shadow">
          <path class="st1" d="M17.48,0h63.74c9.66,0,17.48,7.81,17.48,17.48v61.27c0,9.66-7.81,17.48-17.48,17.48H17.48c-9.66,0-17.48-7.81-17.48-17.48V17.48C0,7.81,7.81,0,17.48,0Z"/>
        </g>
      </g>
    </g>
    <g id="Outlined_Mnemonics_Logos">
      <g id="Ps">
        <path class="st0" d="M22.21,67.48V25.17c0-.29.12-.45.41-.45.7,0,1.36,0,2.3-.04.99-.04,2.02-.04,3.13-.08,1.11-.04,2.3-.04,3.58-.08,1.27-.04,2.51-.04,3.74-.04,3.37,0,6.17.41,8.47,1.27,2.06.7,3.95,1.85,5.51,3.37,1.32,1.32,2.34,2.92,3,4.69.62,1.73.95,3.5.95,5.35,0,3.54-.82,6.46-2.47,8.76s-3.95,4.03-6.62,5.02c-2.8,1.03-5.88,1.4-9.25,1.4-.99,0-1.64,0-2.06-.04s-.99-.04-1.77-.04v13.2c.04.29-.16.53-.45.58h-7.98c-.33,0-.49-.16-.49-.53v-.03ZM31.17,32.65v13.82c.58.04,1.11.08,1.6.08h2.18c1.6,0,3.21-.25,4.73-.74,1.32-.37,2.47-1.15,3.37-2.18.86-1.03,1.27-2.43,1.27-4.24.04-1.27-.29-2.55-.95-3.66-.7-1.07-1.69-1.89-2.88-2.34-1.52-.62-3.17-.86-4.85-.82-1.07,0-2.02,0-2.8.04-.82-.04-1.4,0-1.69.04h.02Z"/>
        <path class="st0" d="M78.96,43.96c-1.23-.66-2.55-1.11-3.95-1.4-1.52-.33-3.04-.53-4.61-.53-.82-.04-1.69.08-2.47.29-.53.12-.99.41-1.27.82-.21.33-.33.74-.33,1.11s.16.74.41,1.07c.37.45.86.82,1.4,1.11.95.49,1.93.95,2.92,1.36,2.22.74,4.36,1.77,6.33,3,1.36.86,2.47,2.02,3.25,3.41.66,1.32.99,2.76.95,4.24.04,1.93-.53,3.87-1.6,5.47-1.15,1.64-2.76,2.92-4.61,3.66-2.02.86-4.48,1.32-7.44,1.32-1.89,0-3.74-.16-5.59-.53-1.44-.25-2.88-.7-4.19-1.32-.29-.16-.49-.45-.45-.78v-7.16c0-.12.04-.29.16-.37.12-.08.25-.04.37.04,1.6.95,3.29,1.6,5.1,2.02,1.56.41,3.21.62,4.85.62s2.67-.21,3.41-.58c.66-.29,1.11-.99,1.11-1.73,0-.58-.33-1.11-.99-1.64-.66-.53-2.02-1.15-4.03-1.93-2.1-.74-4.03-1.73-5.84-2.96-1.27-.9-2.34-2.1-3.13-3.5-.66-1.32-.99-2.76-.95-4.19,0-1.77.49-3.45,1.4-4.98,1.03-1.64,2.55-2.96,4.32-3.78,1.93-.99,4.36-1.44,7.28-1.44,1.69,0,3.41.12,5.1.37,1.23.16,2.43.49,3.54.95.16.04.33.21.41.37.04.16.08.33.08.49v6.7c0,.16-.08.33-.21.41-.37.08-.58.08-.74,0h0Z"/>
      </g>
    </g>
  </g>
</svg>