<?xml version="1.0" encoding="UTF-8"?>
<svg id="_레이어_1" xmlns="http://www.w3.org/2000/svg" version="1.1" viewBox="0 0 100 97.51">
  <!-- Generator: Adobe Illustrator 30.5.1, SVG Export Plug-In . SVG Version: 2.1.4 Build 3)  -->
  <defs>
    <style>
      .st0 {
        fill: #111;
      }

      .st1 {
        fill: #00b176;
      }
    </style>
  </defs>
  <path class="st1" d="M100,16v65.54c-1.1,9.07-8.46,15.97-17.65,15.97H17.66c-9.25,0-16.74-7.04-17.66-16.23V16.24C.92,7.04,8.41,0,17.66,0h64.69c9.26,0,16.59,6.98,17.65,16Z"/>
  <g>
    <path class="st0" d="M61.72,76.51l.12-.08c1.51.16,2.42-.25,2.58-1.85v-12.97l.1-.06-.1-.16v-25.56c0-.06.04-.11.1-.13l-.1-.05v-13.16c-.42-1.44-1.59-2.21-2.96-1.39l-.1-.06c1.19-1.09,2.68-1.16,4.08-.3l11.64,5.61c.39.19.73.35,1.05.63.46.42.74.96.79,1.6v39.9c-.1.97-.72,1.74-1.52,2.26l-13.35,6.57c-.88.18-1.77-.13-2.33-.81h0Z"/>
    <g>
      <path class="st0" d="M38.49,41.87l.08-.05c2.97,2.27,5.94,4.51,8.92,6.74v.11l.09-.04c5.63,4.23,11.26,8.49,16.88,12.76l.05.15v13.04c0,.4-.1.74-.28,1.07-.48.89-1.53.99-2.51.86l-23.24-21.11-.08.04c-2.47-2.23-4.94-4.47-7.4-6.71l.02-.11-9.59-8.71c-.47-.43-.41-1.12-.09-1.58.21-.3.45-.49.72-.73l3.54-3.16c.27-.25.51-.48.83-.64.58-.28,1.17-.2,1.67.18,0,0,10.39,7.89,10.39,7.89Z"/>
      <path d="M64.52,35.7l-.03.09c-5.62,4.31-11.25,8.62-16.89,12.93l-.11-.04-.23-.13-8.78-6.67,22.87-20.84.77-.32c1.2-.31,2.03.62,2.38,1.76v13.22h.02Z"/>
      <path d="M38.48,55.4l-10.24,7.76c-.34.21-.68.35-1.06.37-.58.04-.99-.26-1.4-.63l-4.12-3.77c-.2-.18-.3-.47-.39-.71-.17-.48-.01-.96.36-1.3l9.01-8.19c.13-.12.22-.22.37-.31,0,0,7.47,6.78,7.47,6.78Z"/>
    </g>
  </g>
</svg>